<svg width="189" height="48" viewBox="0 0 189 48" fill="none" xmlns="http://www.w3.org/2000/svg">
<g clip-path="url(#clip0_1330_9976)">
<path d="M12.338 8.08409C23.0962 -1.44673 28.4429 -0.703018 30.4682 1.13201C32.3395 2.82961 32.3557 10.0242 20.4714 22.5703C20.4714 22.5703 23.0314 19.3529 24.9838 15.6667C26.8551 12.1422 28.1675 8.18109 26.3123 6.61283C22.9666 3.7835 14.9465 8.91672 10.8636 12.4736C8.44133 14.5835 5.74367 17.5745 3.10272 21.5517C2.29261 22.7724 0.899221 24.9712 0 26.7577C0 26.7577 0.883019 23.8475 2.35742 21.0748C4.20446 17.5907 7.24237 12.6029 12.338 8.08409Z" fill="#2979FF"/>
<path d="M23.9204 31.915C13.1621 41.4459 7.8235 40.7021 5.79822 38.8671C3.92687 37.1695 3.91067 29.9749 15.795 17.4288C15.795 17.4288 13.235 20.6462 11.2827 24.3324C9.41131 27.857 8.09893 31.818 9.95408 33.3863C13.2998 36.2156 21.3199 31.0824 25.4029 27.5255C27.8251 25.4157 30.5227 22.4246 33.1637 18.4474C33.9657 17.2348 35.3591 15.0441 36.2583 13.2495C36.2583 13.2495 35.3753 16.1597 33.9009 18.9324C32.0619 22.4085 29.0159 27.4043 23.9204 31.915Z" fill="#2979FF"/>
<path d="M44.274 10.5493H46.3965L46.3884 20.0882H49.078L60.6544 10.5574H64.2351L51.3058 21.1391L64.8832 32.4241H61.3268L49.0213 22.1577H46.3884L46.3803 32.4079H44.2578L44.274 10.5493Z" fill="#2979FF"/>
<path d="M83.4513 18.253C84.796 19.4656 85.3469 21.3329 85.3469 24.809C85.3469 28.0506 84.7555 29.9503 83.4432 31.1305C82.1308 32.2784 80.0002 32.6664 75.2449 32.6664C70.5219 32.6583 68.3913 32.2703 67.0871 31.1224C65.7423 29.9422 65.1914 28.0425 65.1914 24.6635C65.1914 21.3168 65.7504 19.4171 67.0952 18.2449C68.3751 17.097 70.5381 16.709 75.2611 16.709C80.0083 16.709 82.1389 17.1051 83.4513 18.253ZM68.5939 20.0395C67.9377 20.856 67.6379 22.3353 67.6379 24.6635C67.6379 27.2826 67.9944 28.7943 68.845 29.5784C69.728 30.3949 71.3644 30.694 75.2692 30.7021C79.4979 30.7021 81.0695 30.3787 81.9283 29.3278C82.552 28.5114 82.8842 27.032 82.8842 24.7766C82.8842 22.0928 82.5277 20.6135 81.6771 19.797C80.7941 18.9805 79.1577 18.6814 75.3178 18.6734C71.0242 18.6653 69.4526 18.9967 68.5939 20.0395Z" fill="#2979FF"/>
<path d="M88.43 16.9436H90.6983V19.9912C91.6299 17.3721 93.1367 16.7173 98.1918 16.7173C102.445 16.7173 104.081 17.5095 104.843 19.9993C105.839 17.4448 107.662 16.7254 113.073 16.7254C118.769 16.7335 120.405 18.043 120.397 22.6993L120.389 32.4646H118.12L118.129 22.7963C118.129 19.5224 117.011 18.6978 112.466 18.6978C107.54 18.6897 105.556 20.0316 105.548 23.346L105.539 32.4565H103.271L103.279 22.7882C103.279 19.5143 102.161 18.6897 97.6166 18.6897C92.6587 18.6817 90.7064 19.9912 90.6983 23.3379L90.6902 32.4484H88.4219L88.43 16.9436Z" fill="#2979FF"/>
<path d="M123.837 10.6221L139.269 10.6382C142.105 10.6382 143.231 10.9373 144.179 11.9236C145.135 12.9421 145.532 14.2517 145.532 16.4828C145.532 18.6493 145.094 19.6921 143.879 20.4762C143.441 20.7349 143.239 20.84 142.955 20.937C145.207 21.3978 146.22 22.9418 146.22 26.0217C146.22 28.4469 145.815 29.8858 144.827 30.9367C143.757 32.0523 142.396 32.505 140.112 32.505L123.812 32.4888L123.837 10.6221ZM137.649 20.0397C140.744 20.0397 141.465 19.9427 142.129 19.49C142.826 18.9969 143.142 18.0511 143.142 16.5071C143.142 13.7182 142.161 12.837 139.01 12.829L126.146 12.8209L126.138 20.0316L137.649 20.0397ZM139.083 30.2981C142.899 30.2981 143.822 29.4816 143.83 26.143C143.83 22.7963 142.963 22.1092 138.573 22.1092L126.146 22.1011L126.138 30.2981H139.083Z" fill="#2979FF"/>
<path d="M150.553 25.197C150.553 27.8485 150.731 28.6084 151.452 29.4572C152.384 30.5404 153.47 30.7667 157.463 30.7748C162.518 30.7829 163.782 30.2251 164.082 27.8646H166.277C166.188 29.2712 165.824 30.1928 165.07 30.9769C163.863 32.2865 161.854 32.7473 157.342 32.7392C153.218 32.7392 151.209 32.3107 150.035 31.1952C148.803 30.0149 148.293 28.1152 148.293 24.7685C148.293 21.3895 148.811 19.4898 150.043 18.3177C151.217 17.2021 153.235 16.7817 157.318 16.7817C162.097 16.7898 164.05 17.3476 165.192 19.0856C166.034 20.3305 166.334 21.8745 166.302 25.2132L150.553 25.197ZM164.058 23.3054C164.025 22.0605 163.936 21.438 163.636 20.7832C162.826 19.1422 161.652 18.7461 157.326 18.7461C152.967 18.7461 151.76 19.1341 150.983 20.7751C150.683 21.3976 150.594 21.9877 150.561 23.2973L164.058 23.3054Z" fill="#2979FF"/>
<path d="M169.235 21.5029C169.276 19.4739 169.81 18.3906 171.09 17.7035C172.443 16.984 173.974 16.79 178.357 16.79C184.093 16.7981 185.867 17.0568 187.366 18.14C188.613 19.0616 188.97 20.1044 188.961 22.958L188.953 32.5292H186.426V30.4355C185.567 32.3999 184.287 32.7637 178.519 32.7556C172.929 32.7475 171.358 32.5858 170.151 31.7613C168.903 30.9771 168.441 29.9262 168.441 27.8891C168.441 25.9894 168.903 24.7768 169.908 24.1544C171.123 23.4026 173.148 23.1439 178.098 23.1439C182.051 23.1439 183.582 23.2813 184.579 23.6451C185.543 24.0089 186.005 24.4292 186.426 25.2861V23.6451C186.426 19.1586 185.786 18.7625 178.414 18.7544C172.824 18.7463 171.965 19.1101 171.933 21.5029H169.235ZM171.05 27.9942C171.05 29.3361 171.617 30.193 172.719 30.4517C173.715 30.7184 174.93 30.7831 178.592 30.7831C181.938 30.7831 183.437 30.6861 184.433 30.3628C185.859 29.9343 186.466 29.1502 186.466 27.8083C186.466 26.7897 186.005 26.1026 185.081 25.6418C184.295 25.278 182.521 25.1164 178.851 25.1083C172.192 25.1164 171.05 25.5367 171.05 27.9942Z" fill="#2979FF"/>
</g>
<defs>
<clipPath id="clip0_1330_9976">
<rect width="189" height="48" fill="white"/>
</clipPath>
</defs>
</svg>
