<svg id="Layer_1" data-name="Layer 1" xmlns="http://www.w3.org/2000/svg" viewBox="0 0 518.4 107.63"><defs><style>.cls-1{fill:#ee3123;}.cls-2{fill:#fff;stroke:#fff;stroke-linejoin:round;stroke-width:0.25px;}</style></defs><title>Screenrights Logo RGB</title><path class="cls-1" d="M40.13,0H478.27A40.13,40.13,0,0,1,518.4,40.13V67.5a40.12,40.12,0,0,1-40.12,40.12H40.12A40.12,40.12,0,0,1,0,67.5V40.13A40.13,40.13,0,0,1,40.13,0Z"/><path class="cls-2" d="M69.18,48.68c-.53-8.38-7.32-11.25-15.32-11.25-6.65,0-16.24,3.47-16.24,11.4,0,8.83,6.72,10.42,14,12.15,2.27.53,7.7,1.82,7.7,4.84S57,70,53.86,70c-3.33,0-6-1.66-6.19-4.6H37.17c.15,8.68,7.85,12.15,16.69,12.15,7,0,17.14-4.15,17.14-12.45,0-14.2-21.67-10.8-21.67-16.76,0-2.5,1.43-3.4,4.53-3.4,2.56,0,5,1.13,5.13,3.7Z"/><path class="cls-2" d="M109.87,51.85c.07-8.91-7.1-14.42-16.77-14.42-11.25,0-16.91,10-16.91,20.08S81.85,77.59,93.1,77.59c10.42,0,16.39-5.28,16.77-14.94h-11C98.77,65.74,97.48,70,93.1,70c-4.83,0-4.9-9.58-5.21-13.06C88,54,88.12,45,93,45c4.38,0,5.67,3.77,5.74,6.87Z"/><path class="cls-2" d="M116.6,38.56c.15,2.79.38,6,.38,7.55l.07,30.35H128.3V57.66a13.58,13.58,0,0,1,1.51-6.72,8.18,8.18,0,0,1,5.51-2.79h4.91v-10c-5.66-.15-10.49,1.36-12.91,7.32h-.15l-.23-6.87Z"/><path class="cls-2" d="M181.31,60.53a55.57,55.57,0,0,0-.31-7.25,20.76,20.76,0,0,0-1.88-6.79c-3.17-6.65-9.06-9.06-16.16-9.06-11.55,0-18.2,8.76-18.2,20.16,0,12.68,5.21,20,18.2,20,8.83,0,16.16-3.09,17.14-12.45H169.91c-1.06,3.47-3,4.9-6.95,4.9-5.81,0-6.49-4.6-6.49-9.51ZM156.47,53c.15-4.15,1.28-8,6.49-8,5.51,0,6.64,3.85,6.64,8Z"/><path class="cls-2" d="M223.65,60.53a57.41,57.41,0,0,0-.3-7.25,20.53,20.53,0,0,0-1.89-6.79c-3.17-6.65-9.06-9.06-16.15-9.06-11.56,0-18.2,8.76-18.2,20.16,0,12.68,5.21,20,18.2,20,8.83,0,16.15-3.09,17.13-12.45H212.25c-1.06,3.47-3,4.9-6.94,4.9-5.82,0-6.5-4.6-6.5-9.51ZM198.81,53c.15-4.15,1.29-8,6.5-8,5.51,0,6.64,3.85,6.64,8Z"/><path class="cls-2" d="M242.52,38.56H231.27v37.9h11.32V53.66c.15-5.51,3.25-8.68,6.8-8.68,5.58,0,6.72,4.6,6.79,8.68v22.8h11.33V51.77a25.71,25.71,0,0,0-.76-6c-1.36-5.51-8.68-8.3-12.46-8.3-5.73,0-9.28,2.26-11.62,5.74l-.15-.23Z"/><path class="cls-2" d="M276.78,38.56c.15,2.79.37,6,.37,7.55l.08,30.35h11.25V57.66A13.58,13.58,0,0,1,290,50.94a8.2,8.2,0,0,1,5.51-2.79h4.91v-10c-5.66-.15-10.49,1.36-12.91,7.32h-.15l-.23-6.87Z"/><path class="cls-2" d="M307.35,38.56v37.9h11.32V38.56ZM307,22v9.74h12.08V22Z"/><path class="cls-2" d="M363.81,38.56H352.48v4.38h-.15c-1.81-3.85-5.06-5.51-10.11-5.51-10.58,0-16.09,9.74-16.09,19.4,0,9.21,5.29,18.88,15.56,18.88,4.3,0,8.3-1.51,10.64-5.21h.15c.46,5.51.76,13.36-7.85,13.36-3.1,0-6.11-1.28-6.27-4.68H327.64c.23,10.19,9.21,12.23,17.59,12.23,16.62.15,18.58-9.51,18.58-18.35Zm-26,18.35c0-5.59,1.13-11.93,7.32-11.93s7.32,6.34,7.32,11.93c0,4.9-1.13,11.25-7.32,11.25S337.84,61.81,337.84,56.91Z"/><path class="cls-2" d="M385.16,76.46V53.66c.15-5.51,3.25-8.68,6.79-8.68,5.59,0,6.72,4.6,6.8,8.68v22.8h11.32V51.77a26.15,26.15,0,0,0-.75-6c-1.36-5.51-8.69-8.3-12.46-8.3-5.74,0-9.29,2.26-11.63,5.74l-.15-.16V22H373.83V76.46Z"/><path class="cls-2" d="M415.42,38.56v7.55H423V64.76c0,8.23,1.89,12.83,10.72,12.83,1.59,0,7.63-.52,8.91-1.13V69.82c-1.2.07-2.41.22-3.62.22-3.93,0-4.68-1.35-4.68-6.34V46.11h8.53V38.56h-8.53V27L423,31.08v7.48Z"/><path class="cls-2" d="M479.28,48.68C478.75,40.3,472,37.43,464,37.43c-6.65,0-16.24,3.47-16.24,11.4,0,8.83,6.72,10.42,14,12.15,2.27.53,7.7,1.82,7.7,4.84S467.05,70,464,70c-3.33,0-6-1.66-6.2-4.6H447.27c.15,8.68,7.85,12.15,16.69,12.15,7,0,17.13-4.15,17.13-12.45,0-14.2-21.66-10.8-21.66-16.76,0-2.5,1.43-3.4,4.53-3.4,2.56,0,5,1.13,5.13,3.7Z"/></svg>
